#!OML:ASF Y:\EmotionMaleHayes\Project 1\Capture day 1\Session 1\Male1.ASF
:FULLY-SPECIFIED
:DEGREES
363
root 26.2758 16.2016 -0.977521 -53.6305 77.1549 -61.5511
lowerback 20.0004 5.73393 7.5645
upperback 4.44042 9.56063 3.03154
thorax -5.56135 4.69619 -3.24187
lowerneck -27.0909 -1.81352 0.617298
upperneck 21.3248 -2.58175 -0.567955
head 11.3859 -1.17226 -0.754756
rclavicle -2.16675e-014 -2.54444e-014
rhumerus -12.0112 20.8219 -87.2384
rradius 94.2171
rwrist -16.3205
rhand -36.4979 -20.2731
rfingers 7.12502
rthumb -9.59022 -50.0348
lclavicle -2.16675e-014 -2.54444e-014
lhumerus -90.4668 -29.7294 107.268
lradius 82.3583
lwrist 13.4806
lhand -41.4632 -39.8395
lfingers 7.12502
lthumb -14.378 -10.3575
rfemur 15.8185 -0.12907 27.0822
rtibia 26.0436
rfoot 169.013 -176.125
rtoes -11.1767
lfemur -54.2439 10.5906 -6.78433
ltibia 79.7261
lfoot -10.9236 8.42587
ltoes -12.0242
364
root 26.8892 16.269 -1.02247 -54.7195 77.7698 -62.4573
lowerback 19.3948 5.75791 7.88032
upperback 4.38647 9.54893 2.53214
thorax -5.15863 4.70363 -3.85386
lowerneck -27.0507 -2.1074 0.606017
upperneck 21.644 -3.10717 -0.126434
head 11.5047 -1.34249 -0.682331
rclavicle 5.56597e-015 0
rhumerus -11.5579 21.6088 -86.5716
rradius 96.0431
rwrist -17.5584
rhand -35.9168 -20.315
rfingers 7.12502
rthumb -9.02951 -50.1018
lclavicle 5.56597e-015 0
lhumerus -92.389 -29.8286 106.524
lradius 83.2274
lwrist 14.0682
lhand -41.149 -39.6666
lfingers 7.12502
lthumb -14.0752 -10.1632
rfemur 18.7698 -0.369213 25.6757
rtibia 23.7775
rfoot 173.821 -175.723
rtoes 1.86372
lfemur -54.4782 9.62378 -7.23223
ltibia 74.4161
lfoot -10.6049 9.61066
ltoes -11.7916
365
root 27.4922 16.3329 -1.05285 -53.301 77.688 -60.847
lowerback 18.9633 6.0664 8.07655
upperback 4.31772 9.9069 2.08661
thorax -4.84792 4.88816 -4.43582
lowerneck -27.1408 -2.35228 0.748839
upperneck 21.9618 -3.58944 0.161853
head 11.6439 -1.49897 -0.686413
rclavicle 4.45278e-014 -2.74323e-014
rhumerus -11.3137 22.397 -85.9685
rradius 97.8993
rwrist -18.3187
rhand -35.4424 -18.9467
rfingers 7.12502
rthumb -8.57173 -48.7527
lclavicle 4.45278e-014 -2.74323e-014
lhumerus -93.9399 -29.8525 105.45
lradius 84.0786
lwrist 14.3624
lhand -40.7914 -38.8402
lfingers 7.12502
lthumb -13.7306 -9.31318
rfemur 21.2222 0.410637 25.006
rtibia 22.1447
rfoot 178.13 -176.066
rtoes 12.2801
lfemur -54.082 9.74284 -7.13932
ltibia 68.5567
lfoot -9.63712 10.4593
ltoes -10.6281
366
root 28.0986 16.3722 -1.07408 -51.6329 77.8418 -59.4681
lowerback 17.985 6.40582 7.9844
upperback 4.10259 10.1967 1.58323
thorax -4.44578 5.04158 -4.8403
lowerneck -27.2589 -2.7188 0.797579
upperneck 22.283 -4.23552 0.55043
head 11.7959 -1.72006 -0.667509
rclavicle 1.28614e-013 -1.15295e-014
rhumerus -11.4525 23.1108 -85.5296
rradius 99.6318
rwrist -18.5304
rhand -35.216 -18.3231
rfingers 7.12502
rthumb -8.35324 -48.138
lclavicle 1.28614e-013 -1.15295e-014
lhumerus -95.2212 -29.8426 104.153
lradius 84.8399
lwrist 14.3143
lhand -40.6569 -38.282
lfingers 7.12502
lthumb -13.601 -8.74634
rfemur 22.973 1.472 24.5726
rtibia 21.0854
rfoot 178.873 -176.675
rtoes 8.79395
lfemur -54.0092 9.8467 -7.31282
ltibia 62.5415
lfoot -8.51329 10.7015
ltoes -9.35332
367
root 28.7102 16.4107 -1.09007 -50.0592 77.7388 -58.0887
lowerback 17.0791 6.76089 7.96039
upperback 3.89066 10.5437 1.19014
thorax -4.07378 5.22302 -5.17348
lowerneck -27.2045 -3.07801 0.724078
upperneck 22.5846 -4.82718 0.962875
head 11.9165 -1.92316 -0.607936
rclavicle -3.70733e-014 -4.09496e-014
rhumerus -11.8549 23.7863 -85.2233
rradius 101.194
rwrist -18.2463
rhand -34.7208 -17.0644
rfingers 7.12502
rthumb -7.87531 -46.8977
lclavicle -3.70733e-014 -4.09496e-014
lhumerus -96.2248 -29.7351 102.765
lradius 85.546
lwrist 14.0688
lhand -40.6437 -38.0792
lfingers 7.12502
lthumb -13.5882 -8.54261
rfemur 24.5333 3.19107 24.9471
rtibia 20.8753
rfoot 178.711 -177.705
rtoes 6.70387
lfemur -53.2916 10.2062 -7.20449
ltibia 56.1534
lfoot -7.19248 10.3488
ltoes -6.92871
368
root 29.3223 16.4459 -1.10248 -48.8904 77.3303 -56.9934
lowerback 16.2958 7.12618 8.11034
upperback 3.72817 10.9609 0.950759
thorax -3.69671 5.44226 -5.45059
lowerneck -27.1015 -3.41059 0.361841
upperneck 22.7699 -5.29837 1.49852
head 11.9995 -2.08365 -0.432184
rclavicle 3.84648e-014 3.3197e-014
rhumerus -12.4464 24.4192 -84.9127
rradius 102.632
rwrist -17.3677
rhand -34.5523 -16.196
rfingers 7.12502
rthumb -7.71266 -46.0354
lclavicle 3.84648e-014 3.3197e-014
lhumerus -96.8879 -29.6207 101.416
lradius 86.2695
lwrist 13.7094
lhand -40.6381 -37.6548
lfingers 7.12502
lthumb -13.5828 -8.11787
rfemur 25.8022 5.20552 26.0354
rtibia 21.6846
rfoot 177.893 -178.969
rtoes 5.08122
lfemur -51.9863 10.8044 -6.7151
ltibia 49.4718
lfoot -5.73926 9.95272
ltoes -4.76917
369
root 29.927 16.473 -1.11454 -47.237 77.0603 -55.363
lowerback 15.5732 7.52357 8.10131
upperback 3.62949 11.3978 0.676616
thorax -3.29789 5.67717 -5.6741
lowerneck -26.9185 -3.75022 0.0127023
upperneck 22.7464 -5.76201 1.96659
head 11.9884 -2.25602 -0.279332
rclavicle -8.63222e-014 -3.71727e-014
rhumerus -13.1637 24.9403 -84.695
rradius 103.833
rwrist -16.497
rhand -34.977 -15.4758
rfingers 7.12502
rthumb -8.12256 -45.2997
lclavicle -8.63222e-014 -3.71727e-014
lhumerus -97.121 -29.6864 100.091
lradius 86.8605
lwrist 13.1649
lhand -40.8213 -37.5676
lfingers 7.12502
lthumb -13.7594 -8.04253
rfemur 26.449 6.91555 26.8253
rtibia 23.8569
rfoot 177.453 -180.225
rtoes 5.03142
lfemur -50.3386 11.3538 -6.46097
ltibia 42.5504
lfoot -4.28964 9.83893
ltoes -3.86977
370
root 30.5239 16.4853 -1.12651 -46.12 76.8051 -54.2277
lowerback 14.9454 7.83682 8.18674
upperback 3.51353 11.7526 0.418566
thorax -2.96035 5.86806 -5.92711
lowerneck -26.622 -3.99062 -0.0983058
upperneck 22.7567 -6.11234 2.18932
head 11.9539 -2.39184 -0.234906
rclavicle 2.5196e-014 4.1049e-014
rhumerus -14.2034 25.4954 -84.8224
rradius 104.508
rwrist -14.7981
rhand -35.5052 -14.8677
rfingers 7.12502
rthumb -8.63229 -44.6712
lclavicle 2.5196e-014 4.1049e-014
lhumerus -97.0796 -29.7488 98.8305
lradius 87.2081
lwrist 12.6199
lhand -41.0631 -37.7517
lfingers 7.12502
lthumb -13.9925 -8.24264
rfemur 26.6711 8.15007 27.4358
rtibia 26.9737
rfoot 177.925 -181.364
rtoes 5.49216
lfemur -48.6701 11.9169 -6.29973
ltibia 36.4076
lfoot -3.22385 9.72876
ltoes -3.72368
371
root 31.1181 16.4809 -1.13962 -46.1929 76.4346 -54.3488
lowerback 14.2943 7.90369 8.35236
upperback 3.30014 11.8032 0.288102
thorax -2.76896 5.89519 -6.06027
lowerneck -26.3578 -3.97198 0.040113
upperneck 22.9518 -6.15832 2.25005
head 11.9793 -2.38653 -0.23918
rclavicle -1.19678e-013 -7.15625e-015
rhumerus -15.6279 26.6514 -85.479
rradius 104.946
rwrist -13.9377
rhand -36.1099 -14.4734
rfingers 7.12502
rthumb -9.21583 -44.252
lclavicle -1.19678e-013 -7.15625e-015
lhumerus -96.7844 -29.2378 97.4578
lradius 87.443
lwrist 12.1947
lhand -41.2596 -37.3773
lfingers 7.12502
lthumb -14.1817 -7.88143
rfemur 26.778 9.09253 28.3529
rtibia 30.3257
rfoot 177.087 -181.947
rtoes 1.76135
lfemur -47.2983 12.5387 -5.96008
ltibia 30.8046
lfoot -1.74112 9.83786
ltoes -0.914833
372
root 31.7086 16.4588 -1.158 -47.1856 76.0725 -55.4713
lowerback 13.6016 7.86618 8.70435
upperback 3.04548 11.7442 0.268244
thorax -2.60148 5.86394 -6.16251
lowerneck -26.3141 -4.05251 -0.0682574
upperneck 23.3593 -6.25009 2.29434
head 12.1367 -2.41778 -0.22417
rclavicle 2.34317e-014 -4.11981e-014
rhumerus -17.3436 27.7242 -86.2417
rradius 105.326
rwrist -13.0828
rhand -36.0271 -16.063
rfingers 7.12502
rthumb -9.13597 -45.8451
lclavicle 2.34317e-014 -4.11981e-014
lhumerus -96.2049 -28.703 96.3608
lradius 87.5069
lwrist 11.8272
lhand -41.3785 -37.2661
lfingers 7.12502
lthumb -14.2964 -7.77823
rfemur 26.6387 9.75181 29.4359
rtibia 34.1137
rfoot 175.587 -183.05
rtoes 3.40137
lfemur -46.546 13.4545 -6.00742
ltibia 27.2558
lfoot -1.07538 9.56734
ltoes -2.53016
373
root 32.2945 16.4207 -1.17784 -48.7586 75.5024 -56.9661
lowerback 13.1087 7.82091 9.32517
upperback 2.97802 11.7304 0.38667
thorax -2.31061 5.87097 -6.27973
lowerneck -26.2672 -3.86901 -0.261426
upperneck 23.4017 -5.9782 2.51516
head 12.157 -2.28248 -0.0604763
rclavicle -8.69683e-015 3.19049e-014
rhumerus -19.0232 28.5454 -86.9
rradius 105.275
rwrist -13.2438
rhand -36.1044 -15.6987
rfingers 7.12502
rthumb -9.21058 -45.4776
lclavicle -8.69683e-015 3.19049e-014
lhumerus -95.1272 -28.3942 95.551
lradius 87.327
lwrist 11.556
lhand -41.7293 -36.7339
lfingers 7.12502
lthumb -14.6343 -7.27023
rfemur 26.5073 10.1662 30.6031
rtibia 38.2398
rfoot 176.037 -184.275
rtoes 7.59617
lfemur -45.977 14.635 -5.96747
ltibia 24.7331
lfoot 0.288883 9.26824
ltoes -1.76179
